<?xml version="1.0" encoding="iso-8859-1"?>
<!-- Generator: Adobe Illustrator 19.0.0, SVG Export Plug-In . SVG Version: 6.00 Build 0)  -->
<svg version="1.1" id="Layer_1" xmlns="http://www.w3.org/2000/svg" xmlns:xlink="http://www.w3.org/1999/xlink" x="0px" y="0px"
	 viewBox="0 0 512 512" style="enable-background:new 0 0 512 512;" xml:space="preserve">
<path style="fill:#E04F5F;" d="M440.8,184.728c0-0.048,0-0.088,0-0.136l0,0c-0.072-50.904-20.736-96.992-54.112-130.384
	C353.2,20.72,306.928,0,255.808,0v185h0.408l130.472,130.384c33.376-33.392,54.04-79.472,54.112-130.384l0,0
	c0-0.048,0-0.088,0-0.136c0-0.024,0-0.048,0-0.072S440.8,184.752,440.8,184.728z"/>
<path style="fill:#FFD07D;" d="M256.192,369.592c50.968-0.104,97.088-20.8,130.488-54.208l-130.488-130.4V184.6V0
	c-51.12,0-97.392,20.72-130.88,54.216C91.936,87.608,71.272,133.688,71.2,184.6l0,0c0,0.048,0,0.088,0,0.136
	c0,0.024,0,0.048,0,0.072s0,0.048,0,0.072c0,0.048,0,0.088,0,0.136l0,0c0.072,50.904,20.736,96.992,54.112,130.384
	c33.4,33.408,79.528,54.104,130.488,54.208V369.6c0.064,0,0.128-0.008,0.192-0.008c0.064,0,0.128,0.008,0.192,0.008v-0.008H256.192z
	"/>
<g>
	<rect x="184.32" y="447.216" style="fill:#AAC1CE;" width="143.304" height="12"/>
	<rect x="87.464" y="500" style="fill:#AAC1CE;" width="337.04" height="12"/>
</g>
<g>
</g>
<g>
</g>
<g>
</g>
<g>
</g>
<g>
</g>
<g>
</g>
<g>
</g>
<g>
</g>
<g>
</g>
<g>
</g>
<g>
</g>
<g>
</g>
<g>
</g>
<g>
</g>
<g>
</g>
</svg>
