<?xml version="1.0" encoding="iso-8859-1"?>
<!-- Generator: Adobe Illustrator 19.0.0, SVG Export Plug-In . SVG Version: 6.00 Build 0)  -->
<svg version="1.1" id="Capa_1" xmlns="http://www.w3.org/2000/svg" xmlns:xlink="http://www.w3.org/1999/xlink" x="0px" y="0px"
	 viewBox="0 0 476.554 476.554" style="enable-background:new 0 0 476.554 476.554;" xml:space="preserve">
<g>
	<g>
		<path d="M349.539,16.246c-69.908,0-127.015,56.123-127.015,126.031c0,68.923,57.108,126.031,127.015,126.031
			c69.908,0,127.015-57.108,127.015-126.031C476.554,73.354,419.446,16.246,349.539,16.246z M349.539,247.63
			c-59.077,0-107.323-47.261-107.323-106.338c0-58.092,48.246-106.338,107.323-106.338c59.077,0,107.323,48.246,107.323,106.338
			C456.862,199.384,408.616,247.63,349.539,247.63z"/>
	</g>
</g>
<g>
	<g>
		
			<rect x="143.248" y="259.699" transform="matrix(0.7442 -0.668 0.668 0.7442 -125.8988 210.3539)" width="136.865" height="19.693"/>
	</g>
</g>
<g>
	<g>
		<path d="M151.631,289.969L0,420.923l34.462,39.385l151.631-130.954L151.631,289.969z M27.569,422.892l121.108-105.354l8.861,9.846
			L36.431,432.738L27.569,422.892z"/>
	</g>
</g>
<g>
	<g>
		<rect x="24.615" y="54.646" width="19.692" height="167.385"/>
	</g>
</g>
<g>
	<g>
		<rect x="64" y="86.154" width="19.692" height="135.877"/>
	</g>
</g>
<g>
	<g>
		<rect x="104.369" y="109.785" width="19.692" height="112.246"/>
	</g>
</g>
<g>
	<g>
		<rect x="143.754" y="54.646" width="19.692" height="167.385"/>
	</g>
</g>
<g>
	<g>
		<rect x="183.139" y="86.154" width="19.692" height="135.877"/>
	</g>
</g>
<g>
	<g>
		<rect x="281.6" y="113.723" width="19.692" height="109.292"/>
	</g>
</g>
<g>
	<g>
		<rect x="321.969" y="54.646" width="19.692" height="167.385"/>
	</g>
</g>
<g>
	<g>
		<rect x="361.354" y="86.154" width="19.692" height="135.877"/>
	</g>
</g>
<g>
	<g>
		<rect x="400.739" y="109.785" width="19.692" height="112.246"/>
	</g>
</g>
<g>
</g>
<g>
</g>
<g>
</g>
<g>
</g>
<g>
</g>
<g>
</g>
<g>
</g>
<g>
</g>
<g>
</g>
<g>
</g>
<g>
</g>
<g>
</g>
<g>
</g>
<g>
</g>
<g>
</g>
</svg>
